<svg width="1200" height="1200" viewBox="0 0 1200 1200" fill="none" xmlns="http://www.w3.org/2000/svg">
<g filter="url(#filter0_f_407_941)">
<rect x="288" y="288" width="440" height="440" rx="80" fill="url(#paint0_linear_407_941)"/>
<path d="M545.311 531.041C533.771 523.133 523.134 533.771 531.041 545.31L599.754 645.586C604.862 653.04 602.308 661.557 594.698 662.439L492.341 674.317C480.561 675.684 482.818 692.984 495.368 697.524L604.421 736.977C612.528 739.91 617.431 749.4 614.124 755.756L569.644 841.267C564.525 851.108 578.354 864.936 588.195 859.818L673.705 815.337C680.062 812.031 689.551 816.934 692.484 825.041L731.937 934.094C736.478 946.644 753.778 948.9 755.145 937.121L767.022 834.763C767.905 827.154 776.422 824.599 783.876 829.707L884.151 898.421C895.691 906.328 906.328 895.691 898.421 884.151L829.708 783.876C824.599 776.422 827.154 767.905 834.764 767.022L937.121 755.144C948.9 753.778 946.644 736.477 934.094 731.937L825.041 692.484C816.934 689.551 812.031 680.062 815.338 673.705L859.818 588.194C864.937 578.354 851.108 564.525 841.267 569.644L755.757 614.124C749.4 617.431 739.91 612.527 736.977 604.421L697.525 495.368C692.984 482.818 675.684 480.561 674.317 492.341L662.44 594.698C661.557 602.307 653.04 604.862 645.586 599.754L545.311 531.041Z" fill="url(#paint1_linear_407_941)"/>
<g style="mix-blend-mode:overlay" opacity="0.56">
<rect width="880" height="880" rx="440" transform="matrix(1 0 0 -1 160 1040)" fill="#EDEBFF"/>
</g>
</g>
<defs>
<filter id="filter0_f_407_941" x="0" y="0" width="1200" height="1200" filterUnits="userSpaceOnUse" color-interpolation-filters="sRGB">
<feFlood flood-opacity="0" result="BackgroundImageFix"/>
<feBlend mode="normal" in="SourceGraphic" in2="BackgroundImageFix" result="shape"/>
<feGaussianBlur stdDeviation="80" result="effect1_foregroundBlur_407_941"/>
</filter>
<linearGradient id="paint0_linear_407_941" x1="288" y1="288" x2="728" y2="728" gradientUnits="userSpaceOnUse">
<stop offset="0.220455" stop-color="#7C46FB"/>
<stop offset="0.429545" stop-color="#BDA5FD"/>
<stop offset="0.669318" stop-color="#FF9C33"/>
</linearGradient>
<linearGradient id="paint1_linear_407_941" x1="1040" y1="757.157" x2="492.26" y2="788.847" gradientUnits="userSpaceOnUse">
<stop offset="0.21576" stop-color="#F7789A"/>
<stop offset="0.827893" stop-color="#BDA5FD"/>
</linearGradient>
</defs>
</svg>
