<svg width="20" height="20" viewBox="0 0 20 20" fill="none" xmlns="http://www.w3.org/2000/svg">
<path fill-rule="evenodd" clip-rule="evenodd" d="M11.0592 1.72932C11.3677 1.86323 11.551 2.1845 11.5093 2.51821L10.8581 7.72724H16.8181C17.1121 7.72724 17.3795 7.89729 17.5042 8.16349C17.6289 8.42969 17.5883 8.74398 17.4001 8.9698L9.82439 18.0607C9.6091 18.319 9.24925 18.4045 8.94075 18.2706C8.63226 18.1367 8.44898 17.8154 8.49069 17.4817L9.14182 12.2727H3.18184C2.88789 12.2727 2.62047 12.1026 2.49579 11.8364C2.37111 11.5702 2.41167 11.2559 2.59985 11.0301L10.1756 1.93925C10.3909 1.6809 10.7507 1.5954 11.0592 1.72932ZM4.79928 10.7575H9.99998C10.2173 10.7575 10.4241 10.8508 10.5679 11.0137C10.7117 11.1766 10.7787 11.3935 10.7517 11.6091L10.3146 15.1056L15.2007 9.24239H9.99998C9.78269 9.24239 9.57585 9.14908 9.43205 8.98618C9.28824 8.82328 9.22131 8.60647 9.24826 8.39085L9.68533 4.89427L4.79928 10.7575Z" fill="url(#paint0_linear_662_4437)"/>
<defs>
<linearGradient id="paint0_linear_662_4437" x1="9.99998" y1="1.66663" x2="9.99998" y2="18.3333" gradientUnits="userSpaceOnUse">
<stop stop-color="#C8C3EA"/>
<stop offset="0.522005" stop-color="#F2F0FF"/>
<stop offset="1" stop-color="#9A73FC"/>
</linearGradient>
</defs>
</svg>
