<svg width="20" height="20" viewBox="0 0 20 20" fill="none" xmlns="http://www.w3.org/2000/svg">
<g id="Icon">
<path id="Vector" fill-rule="evenodd" clip-rule="evenodd" d="M6.43942 2.46558C8.13991 1.66198 10.0622 1.45725 11.8938 1.88469C13.7254 2.31213 15.3586 3.3466 16.5277 4.81988C17.6968 6.29317 18.3332 8.11863 18.3333 9.99944V10.7571C18.3333 11.5607 18.014 12.3315 17.4457 12.8998C16.8774 13.4681 16.1067 13.7874 15.303 13.7874C14.4993 13.7874 13.7285 13.4681 13.1602 12.8998C13.04 12.7795 12.9308 12.6501 12.8335 12.5133C12.1396 13.2949 11.1273 13.7874 9.99996 13.7874C7.90798 13.7874 6.21209 12.0915 6.21209 9.99948C6.21209 7.9075 7.90798 6.21161 9.99996 6.21161C10.8527 6.21161 11.6396 6.49338 12.2727 6.96891C12.2728 6.55063 12.612 6.21161 13.0303 6.21161C13.4487 6.21161 13.7878 6.55079 13.7878 6.96918V10.7571C13.7878 11.1589 13.9475 11.5443 14.2316 11.8284C14.5158 12.1126 14.9011 12.2722 15.303 12.2722C15.7048 12.2722 16.0902 12.1126 16.3744 11.8284C16.6585 11.5443 16.8181 11.1589 16.8181 10.7571V9.99953C16.8181 9.99952 16.8181 9.99955 16.8181 9.99953C16.818 8.46071 16.2974 6.96712 15.3408 5.76172C14.3843 4.5563 13.0481 3.70992 11.5495 3.36019C10.0509 3.01047 8.4781 3.17797 7.08679 3.83547C5.69548 4.49296 4.56751 5.60178 3.88628 6.98162C3.20505 8.36146 3.01063 9.93117 3.33463 11.4355C3.65863 12.9399 4.48199 14.2904 5.67085 15.2674C6.8597 16.2445 8.34412 16.7907 9.88274 16.8171C11.4214 16.8436 12.9237 16.3488 14.1454 15.4132C14.4776 15.1588 14.9531 15.2218 15.2075 15.554C15.4619 15.8862 15.3988 16.3617 15.0666 16.6161C13.5734 17.7596 11.7372 18.3644 9.85669 18.3321C7.97616 18.2997 6.16187 17.6322 4.70882 16.438C3.25578 15.2438 2.24944 13.5932 1.85344 11.7545C1.45744 9.91588 1.69507 7.99735 2.52768 6.31087C3.3603 4.6244 4.73893 3.26918 6.43942 2.46558ZM12.2727 9.99948C12.2727 8.74429 11.2552 7.72676 9.99996 7.72676C8.74477 7.72676 7.72724 8.74429 7.72724 9.99948C7.72724 11.2547 8.74477 12.2722 9.99996 12.2722C11.2552 12.2722 12.2727 11.2547 12.2727 9.99948Z" fill="#FFF2E6"/>
</g>
</svg>
