<svg width="20" height="20" viewBox="0 0 20 20" fill="none" xmlns="http://www.w3.org/2000/svg">
    <path fill-rule="evenodd" clip-rule="evenodd"
        d="M16.3412 3.65869C16.7751 4.0926 16.7751 4.79612 16.3412 5.23004L5.23011 16.3411C4.7962 16.7751 4.09268 16.7751 3.65877 16.3411C3.22485 15.9072 3.22485 15.2037 3.65877 14.7698L14.7699 3.65869C15.2038 3.22477 15.9073 3.22477 16.3412 3.65869Z"
        fill="#FFF2E6" />
    <path fill-rule="evenodd" clip-rule="evenodd"
        d="M3.33333 4.44436C3.33333 3.83071 3.83079 3.33325 4.44444 3.33325H15.5555C16.1692 3.33325 16.6667 3.83071 16.6667 4.44436V15.5555C16.6667 16.1691 16.1692 16.6666 15.5555 16.6666C14.9419 16.6666 14.4444 16.1691 14.4444 15.5555V5.55547H4.44444C3.83079 5.55547 3.33333 5.05801 3.33333 4.44436Z"
        fill="#FFF2E6" />
</svg>