<svg width="20" height="21" viewBox="0 0 20 21" fill="none" xmlns="http://www.w3.org/2000/svg">
<path fill-rule="evenodd" clip-rule="evenodd" d="M14.7674 9.96428C15.0632 9.66843 15.5429 9.66843 15.8387 9.96428L18.1115 12.237C18.4073 12.5329 18.4073 13.0125 18.1115 13.3084L12.8084 18.6114C12.5126 18.9073 12.0329 18.9073 11.7371 18.6114L9.46434 16.3387C9.16849 16.0428 9.16849 15.5632 9.46434 15.2673L14.7674 9.96428ZM11.0714 15.803L12.2728 17.0043L16.5044 12.7727L15.3031 11.5713L11.0714 15.803Z" fill="#FFF2E6"/>
<path fill-rule="evenodd" clip-rule="evenodd" d="M1.88859 2.38853C2.07521 2.20191 2.34549 2.12587 2.60204 2.18779L13.5869 4.8393C13.8736 4.90852 14.0941 5.1379 14.152 5.42716L15.2883 11.109C15.338 11.3573 15.2603 11.6141 15.0812 11.7932L11.2933 15.5811C11.1142 15.7602 10.8574 15.838 10.609 15.7883L4.92722 14.6519C4.63796 14.5941 4.40858 14.3736 4.33937 14.0868L1.68785 3.10197C1.62593 2.84543 1.70198 2.57515 1.88859 2.38853ZM3.45158 3.95152L5.69871 13.2611L10.5086 14.223L13.7231 11.0085L12.7611 6.19865L3.45158 3.95152Z" fill="#FFF2E6"/>
<path fill-rule="evenodd" clip-rule="evenodd" d="M1.88859 2.38853C2.18444 2.09268 2.66411 2.09268 2.95996 2.38853L8.70693 8.1355C9.00278 8.43135 9.00278 8.91102 8.70693 9.20687C8.41108 9.50272 7.93141 9.50272 7.63556 9.20687L1.88859 3.4599C1.59274 3.16405 1.59274 2.68438 1.88859 2.38853Z" fill="#FFF2E6"/>
<path fill-rule="evenodd" clip-rule="evenodd" d="M9.24245 8.98482C8.82406 8.98482 8.48488 9.32399 8.48488 9.74239C8.48488 10.1608 8.82406 10.5 9.24245 10.5C9.66085 10.5 10 10.1608 10 9.74239C10 9.32399 9.66085 8.98482 9.24245 8.98482ZM6.96973 9.74239C6.96973 8.4872 7.98726 7.46967 9.24245 7.46967C10.4976 7.46967 11.5152 8.4872 11.5152 9.74239C11.5152 10.9976 10.4976 12.0151 9.24245 12.0151C7.98726 12.0151 6.96973 10.9976 6.96973 9.74239Z" fill="#FFF2E6"/>
</svg>
