<svg width="20" height="20" viewBox="0 0 20 20" fill="none" xmlns="http://www.w3.org/2000/svg">
<g id="Icon">
<path id="Vector" fill-rule="evenodd" clip-rule="evenodd" d="M6.87781 3.08992C7.30403 2.6637 7.8821 2.42426 8.48487 2.42426H11.5152C12.1179 2.42426 12.696 2.6637 13.1222 3.08992C13.5485 3.51614 13.7879 4.09422 13.7879 4.69698V5.45456H16.0606C17.3158 5.45456 18.3334 6.47209 18.3334 7.72729V15.303C18.3334 16.5582 17.3158 17.5758 16.0606 17.5758H3.93941C2.68422 17.5758 1.66669 16.5582 1.66669 15.303V7.72729C1.66669 6.47209 2.68422 5.45456 3.93941 5.45456H6.21214V4.69698C6.21214 4.09422 6.45159 3.51614 6.87781 3.08992ZM6.21214 6.96971H3.93941C3.52102 6.96971 3.18184 7.30889 3.18184 7.72729V15.303C3.18184 15.7214 3.52102 16.0606 3.93941 16.0606H6.21214V6.96971ZM7.72729 16.0606V6.96971H12.2727V16.0606H7.72729ZM13.7879 16.0606H16.0606C16.479 16.0606 16.8182 15.7214 16.8182 15.303V7.72729C16.8182 7.30889 16.479 6.96971 16.0606 6.96971H13.7879V16.0606ZM12.2727 5.45456H7.72729V4.69698C7.72729 4.49606 7.80711 4.30337 7.94918 4.1613C8.09126 4.01922 8.28395 3.93941 8.48487 3.93941H11.5152C11.7161 3.93941 11.9088 4.01922 12.0509 4.1613C12.1929 4.30337 12.2727 4.49606 12.2727 4.69698V5.45456Z" fill="#FFF2E6"/>
</g>
</svg>
