<svg width="16" height="16" viewBox="0 0 16 16" fill="none" xmlns="http://www.w3.org/2000/svg">
    <path fill-rule="evenodd" clip-rule="evenodd"
        d="M8 2.54537C4.98753 2.54537 2.54545 4.98746 2.54545 7.99992C2.54545 11.0124 4.98753 13.4545 8 13.4545C11.0125 13.4545 13.4545 11.0124 13.4545 7.99992C13.4545 4.98746 11.0125 2.54537 8 2.54537ZM1.33333 7.99992C1.33333 4.31802 4.3181 1.33325 8 1.33325C11.6819 1.33325 14.6667 4.31802 14.6667 7.99992C14.6667 11.6818 11.6819 14.6666 8 14.6666C4.3181 14.6666 1.33333 11.6818 1.33333 7.99992Z"
        fill="#FFF2E6" />
    <path fill-rule="evenodd" clip-rule="evenodd"
        d="M8 3.75749C8.33471 3.75749 8.60606 4.02884 8.60606 4.36356V7.62535L10.6953 8.66996C10.9947 8.81965 11.116 9.1837 10.9663 9.48308C10.8166 9.78246 10.4526 9.90381 10.1532 9.75412L7.72896 8.542C7.52363 8.43933 7.39393 8.22948 7.39393 7.99992V4.36356C7.39393 4.02884 7.66528 3.75749 8 3.75749Z"
        fill="#FFF2E6" />
</svg>