<svg width="16" height="16" viewBox="0 0 16 16" fill="none" xmlns="http://www.w3.org/2000/svg">
<g id="Icon">
<g id="Vector">
<path fill-rule="evenodd" clip-rule="evenodd" d="M7.39398 6.78792C7.05926 6.78792 6.78792 7.05926 6.78792 7.39398V12.8485C6.78792 13.1832 7.05926 13.4546 7.39398 13.4546H12.8485C13.1832 13.4546 13.4546 13.1832 13.4546 12.8485V7.39398C13.4546 7.05926 13.1832 6.78792 12.8485 6.78792H7.39398ZM5.5758 7.39398C5.5758 6.38983 6.38983 5.5758 7.39398 5.5758H12.8485C13.8527 5.5758 14.6667 6.38983 14.6667 7.39398V12.8485C14.6667 13.8527 13.8527 14.6667 12.8485 14.6667H7.39398C6.38983 14.6667 5.5758 13.8527 5.5758 12.8485V7.39398Z" fill="#938DB9"/>
<path fill-rule="evenodd" clip-rule="evenodd" d="M3.15156 2.5455C2.99082 2.5455 2.83666 2.60935 2.72301 2.72301C2.60935 2.83666 2.5455 2.99082 2.5455 3.15156V8.6061C2.5455 8.76684 2.60935 8.92099 2.72301 9.03465C2.83666 9.14831 2.99082 9.21216 3.15156 9.21216H3.75762C4.09233 9.21216 4.36368 9.4835 4.36368 9.81822C4.36368 10.1529 4.09233 10.4243 3.75762 10.4243H3.15156C2.66934 10.4243 2.20688 10.2327 1.86591 9.89175C1.52493 9.55077 1.33337 9.08831 1.33337 8.6061V3.15156C1.33337 2.66934 1.52493 2.20688 1.86591 1.86591C2.20688 1.52493 2.66934 1.33337 3.15156 1.33337H8.6061C9.08831 1.33337 9.55077 1.52493 9.89175 1.86591C10.2327 2.20688 10.4243 2.66934 10.4243 3.15156V3.75762C10.4243 4.09233 10.1529 4.36368 9.81822 4.36368C9.4835 4.36368 9.21216 4.09233 9.21216 3.75762V3.15156C9.21216 2.99082 9.14831 2.83666 9.03465 2.72301C8.92099 2.60935 8.76684 2.5455 8.6061 2.5455H3.15156Z" fill="#938DB9"/>
</g>
</g>
</svg>
