<svg width="20" height="20" viewBox="0 0 20 20" fill="none" xmlns="http://www.w3.org/2000/svg">
    <path fill-rule="evenodd" clip-rule="evenodd"
        d="M3.79621 2.33233C4.22598 1.90612 4.80888 1.66667 5.41667 1.66667H11.5278C11.7304 1.66667 11.9247 1.74648 12.0679 1.88856L16.6513 6.43401C16.7945 6.57608 16.875 6.76878 16.875 6.9697V16.0606C16.875 16.6634 16.6336 17.2415 16.2038 17.6677C15.774 18.0939 15.1911 18.3333 14.5833 18.3333H5.41667C4.80888 18.3333 4.22598 18.0939 3.79621 17.6677C3.36644 17.2414 3.125 16.6634 3.125 16.0606V3.9394C3.125 3.33663 3.36644 2.75855 3.79621 2.33233ZM5.41667 3.18182C5.21407 3.18182 5.01977 3.26164 4.87652 3.40371C4.73326 3.54578 4.65278 3.73847 4.65278 3.9394V16.0606C4.65278 16.2615 4.73326 16.4542 4.87652 16.5963C5.01977 16.7384 5.21407 16.8182 5.41667 16.8182H14.5833C14.7859 16.8182 14.9802 16.7384 15.1235 16.5963C15.2667 16.4542 15.3472 16.2615 15.3472 16.0606V7.2835L11.2114 3.18182H5.41667Z"
        fill="#FFF2E6" />
    <path fill-rule="evenodd" clip-rule="evenodd"
        d="M11.5278 1.66667C11.9497 1.66667 12.2917 2.00585 12.2917 2.42424V6.21212H16.1111C16.533 6.21212 16.875 6.5513 16.875 6.9697C16.875 7.3881 16.533 7.72727 16.1111 7.72727H11.5278C11.1059 7.72727 10.7639 7.3881 10.7639 6.9697V2.42424C10.7639 2.00585 11.1059 1.66667 11.5278 1.66667Z"
        fill="#FFF2E6" />
    <path fill-rule="evenodd" clip-rule="evenodd"
        d="M6.18056 10.7576C6.18056 10.3392 6.52256 10 6.94444 10H13.0556C13.4774 10 13.8194 10.3392 13.8194 10.7576C13.8194 11.176 13.4774 11.5152 13.0556 11.5152H6.94444C6.52256 11.5152 6.18056 11.176 6.18056 10.7576Z"
        fill="#FFF2E6" />
    <path fill-rule="evenodd" clip-rule="evenodd"
        d="M6.18056 13.7879C6.18056 13.3695 6.52256 13.0303 6.94444 13.0303H13.0556C13.4774 13.0303 13.8194 13.3695 13.8194 13.7879C13.8194 14.2063 13.4774 14.5455 13.0556 14.5455H6.94444C6.52256 14.5455 6.18056 14.2063 6.18056 13.7879Z"
        fill="#FFF2E6" />
    <path fill-rule="evenodd" clip-rule="evenodd"
        d="M6.18056 7.72727C6.18056 7.30888 6.52256 6.9697 6.94444 6.9697H8.47222C8.89411 6.9697 9.23611 7.30888 9.23611 7.72727C9.23611 8.14567 8.89411 8.48485 8.47222 8.48485H6.94444C6.52256 8.48485 6.18056 8.14567 6.18056 7.72727Z"
        fill="#FFF2E6" />
</svg>