<svg width="20" height="20" viewBox="0 0 20 20" fill="none" xmlns="http://www.w3.org/2000/svg">
<path fill-rule="evenodd" clip-rule="evenodd" d="M9.48834 1.00887C9.78927 0.774819 10.2107 0.774819 10.5116 1.00887L18.0116 6.8422C18.2146 7.00008 18.3333 7.24284 18.3333 7.5V16.6667C18.3333 17.3297 18.0699 17.9656 17.6011 18.4344C17.1322 18.9033 16.4963 19.1667 15.8333 19.1667H4.16663C3.50358 19.1667 2.8677 18.9033 2.39886 18.4344C1.93002 17.9656 1.66663 17.3297 1.66663 16.6667V7.5C1.66663 7.24284 1.78535 7.00008 1.98834 6.8422L9.48834 1.00887ZM3.33329 7.90757V16.6667C3.33329 16.8877 3.42109 17.0996 3.57737 17.2559C3.73365 17.4122 3.94561 17.5 4.16663 17.5H15.8333C16.0543 17.5 16.2663 17.4122 16.4225 17.2559C16.5788 17.0996 16.6666 16.8877 16.6666 16.6667V7.90757L9.99996 2.72238L3.33329 7.90757Z" fill="#FFF2E6"/>
<path fill-rule="evenodd" clip-rule="evenodd" d="M6.66663 10C6.66663 9.53976 7.03972 9.16666 7.49996 9.16666H12.5C12.9602 9.16666 13.3333 9.53976 13.3333 10V18.3333C13.3333 18.7936 12.9602 19.1667 12.5 19.1667C12.0397 19.1667 11.6666 18.7936 11.6666 18.3333V10.8333H8.33329V18.3333C8.33329 18.7936 7.9602 19.1667 7.49996 19.1667C7.03972 19.1667 6.66663 18.7936 6.66663 18.3333V10Z" fill="#FFF2E6"/>
</svg>
