<svg width="20" height="20" viewBox="0 0 20 20" fill="none" xmlns="http://www.w3.org/2000/svg">
    <path fill-rule="evenodd" clip-rule="evenodd"
        d="M6.21214 3.18182C4.53855 3.18182 3.18184 4.53853 3.18184 6.21212V13.7879C3.18184 15.4615 4.53855 16.8182 6.21214 16.8182H13.7879C15.4615 16.8182 16.8182 15.4615 16.8182 13.7879V6.21212C16.8182 4.53853 15.4615 3.18182 13.7879 3.18182H6.21214ZM1.66669 6.21212C1.66669 3.70174 3.70176 1.66667 6.21214 1.66667H13.7879C16.2983 1.66667 18.3334 3.70174 18.3334 6.21212V13.7879C18.3334 16.2983 16.2983 18.3333 13.7879 18.3333H6.21214C3.70176 18.3333 1.66669 16.2983 1.66669 13.7879V6.21212Z"
        fill="#FFF2E6" />
    <path fill-rule="evenodd" clip-rule="evenodd"
        d="M10.3662 7.71908C9.8933 7.64896 9.41037 7.72973 8.98605 7.9499C8.56173 8.17007 8.21764 8.51843 8.00272 8.94543C7.7878 9.37243 7.71299 9.85633 7.78894 10.3283C7.86488 10.8003 8.08771 11.2363 8.42574 11.5743C8.76376 11.9123 9.19976 12.1351 9.67173 12.2111C10.1437 12.287 10.6276 12.2122 11.0546 11.9973C11.4816 11.7824 11.83 11.4383 12.0501 11.014C12.2703 10.5897 12.3511 10.1067 12.2809 9.63385C12.2094 9.15151 11.9847 8.70496 11.6399 8.36016C11.2951 8.01537 10.8485 7.79061 10.3662 7.71908ZM8.28821 6.60502C8.99541 6.23807 9.80031 6.10345 10.5884 6.22032C11.3923 6.33953 12.1366 6.71413 12.7112 7.28879C13.2859 7.86345 13.6605 8.6077 13.7797 9.4116C13.8966 10.1997 13.762 11.0046 13.395 11.7118C13.0281 12.419 12.4475 12.9925 11.7358 13.3507C11.0241 13.7089 10.2176 13.8336 9.43102 13.707C8.64441 13.5804 7.91774 13.209 7.35436 12.6457C6.79099 12.0823 6.4196 11.3556 6.29303 10.569C6.16645 9.78239 6.29113 8.9759 6.64933 8.26423C7.00753 7.55257 7.58102 6.97197 8.28821 6.60502Z"
        fill="#FFF2E6" />
    <path fill-rule="evenodd" clip-rule="evenodd"
        d="M13.4091 5.83333C13.4091 5.41494 13.7483 5.07576 14.1667 5.07576H14.1743C14.5927 5.07576 14.9318 5.41494 14.9318 5.83333C14.9318 6.25173 14.5927 6.59091 14.1743 6.59091H14.1667C13.7483 6.59091 13.4091 6.25173 13.4091 5.83333Z"
        fill="#FFF2E6" />
</svg>