<svg width="20" height="20" viewBox="0 0 20 20" fill="none" xmlns="http://www.w3.org/2000/svg">
    <path fill-rule="evenodd" clip-rule="evenodd"
        d="M13.2076 8.09354C12.203 8.09354 11.2396 8.51162 10.5292 9.25582C9.81883 10 9.41975 11.0094 9.41975 12.0618V16.8237H10.9349V12.0618C10.9349 11.4303 11.1744 10.8247 11.6006 10.3782C12.0268 9.93169 12.6049 9.68084 13.2076 9.68084C13.8104 9.68084 14.3885 9.93169 14.8147 10.3782C15.2409 10.8247 15.4804 11.4303 15.4804 12.0618V16.8237H16.9955V12.0618C16.9955 11.0093 16.5964 10 15.8861 9.25582C15.1757 8.51162 14.2122 8.09354 13.2076 8.09354ZM9.45782 8.13343C10.4523 7.09156 11.8012 6.50624 13.2076 6.50624C14.6141 6.50624 15.9629 7.09156 16.9574 8.13343C17.952 9.17529 18.5107 10.5884 18.5107 12.0618V17.6174C18.5107 18.0557 18.1715 18.411 17.7531 18.411H14.7228C14.3044 18.411 13.9652 18.0557 13.9652 17.6174V12.0618C13.9652 11.8513 13.8854 11.6494 13.7433 11.5006C13.6012 11.3518 13.4086 11.2681 13.2076 11.2681C13.0067 11.2681 12.814 11.3518 12.6719 11.5006C12.5299 11.6494 12.4501 11.8513 12.4501 12.0618V17.6174C12.4501 18.0557 12.1109 18.411 11.6925 18.411H8.66218C8.24378 18.411 7.9046 18.0557 7.9046 17.6174V12.0618C7.9046 10.5884 8.46331 9.17529 9.45782 8.13343Z"
        fill="#FFF2E6" />
    <path fill-rule="evenodd" clip-rule="evenodd"
        d="M1.84399 8.09354C1.84399 7.65522 2.18317 7.29989 2.60157 7.29989H5.63187C6.05027 7.29989 6.38945 7.65522 6.38945 8.09354V17.6174C6.38945 18.0557 6.05027 18.411 5.63187 18.411H2.60157C2.18317 18.411 1.84399 18.0557 1.84399 17.6174V8.09354ZM3.35915 8.88719V16.8237H4.8743V8.88719H3.35915Z"
        fill="#FFF2E6" />
    <path fill-rule="evenodd" clip-rule="evenodd"
        d="M4.11672 3.33164C3.69832 3.33164 3.35915 3.68697 3.35915 4.12529C3.35915 4.56361 3.69832 4.91894 4.11672 4.91894C4.53512 4.91894 4.8743 4.56361 4.8743 4.12529C4.8743 3.68697 4.53512 3.33164 4.11672 3.33164ZM1.84399 4.12529C1.84399 2.81032 2.86153 1.74434 4.11672 1.74434C5.37191 1.74434 6.38945 2.81032 6.38945 4.12529C6.38945 5.44025 5.37191 6.50624 4.11672 6.50624C2.86153 6.50624 1.84399 5.44025 1.84399 4.12529Z"
        fill="#FFF2E6" />
</svg>