<svg width="20" height="20" viewBox="0 0 20 20" fill="none" xmlns="http://www.w3.org/2000/svg">
<path fill-rule="evenodd" clip-rule="evenodd" d="M3.79621 2.33232C4.22598 1.9061 4.80888 1.66666 5.41667 1.66666H11.5278C11.7304 1.66666 11.9247 1.74647 12.0679 1.88855L16.6513 6.434C16.7945 6.57607 16.875 6.76877 16.875 6.96969V16.0606C16.875 16.6634 16.6336 17.2414 16.2038 17.6677C15.774 18.0939 15.1911 18.3333 14.5833 18.3333H5.41667C4.80888 18.3333 4.22598 18.0939 3.79621 17.6677C3.36644 17.2414 3.125 16.6634 3.125 16.0606V3.93938C3.125 3.33662 3.36644 2.75854 3.79621 2.33232ZM5.41667 3.18181C5.21407 3.18181 5.01977 3.26162 4.87652 3.4037C4.73326 3.54577 4.65278 3.73846 4.65278 3.93938V16.0606C4.65278 16.2615 4.73326 16.4542 4.87652 16.5963C5.01977 16.7384 5.21407 16.8182 5.41667 16.8182H14.5833C14.7859 16.8182 14.9802 16.7384 15.1235 16.5963C15.2667 16.4542 15.3472 16.2615 15.3472 16.0606V7.28349L11.2114 3.18181H5.41667Z" fill="#FFF2E6"/>
<path fill-rule="evenodd" clip-rule="evenodd" d="M11.5278 1.66666C11.9497 1.66666 12.2917 2.00583 12.2917 2.42423V6.21211H16.1111C16.533 6.21211 16.875 6.55129 16.875 6.96969C16.875 7.38808 16.533 7.72726 16.1111 7.72726H11.5278C11.1059 7.72726 10.7639 7.38808 10.7639 6.96969V2.42423C10.7639 2.00583 11.1059 1.66666 11.5278 1.66666Z" fill="#FFF2E6"/>
<path fill-rule="evenodd" clip-rule="evenodd" d="M6.18056 10.7576C6.18056 10.3392 6.52256 9.99999 6.94444 9.99999H13.0556C13.4774 9.99999 13.8194 10.3392 13.8194 10.7576C13.8194 11.176 13.4774 11.5151 13.0556 11.5151H6.94444C6.52256 11.5151 6.18056 11.176 6.18056 10.7576Z" fill="#FFF2E6"/>
<path fill-rule="evenodd" clip-rule="evenodd" d="M6.18056 13.7879C6.18056 13.3695 6.52256 13.0303 6.94444 13.0303H13.0556C13.4774 13.0303 13.8194 13.3695 13.8194 13.7879C13.8194 14.2063 13.4774 14.5454 13.0556 14.5454H6.94444C6.52256 14.5454 6.18056 14.2063 6.18056 13.7879Z" fill="#FFF2E6"/>
<path fill-rule="evenodd" clip-rule="evenodd" d="M6.18056 7.72726C6.18056 7.30887 6.52256 6.96969 6.94444 6.96969H8.47222C8.89411 6.96969 9.23611 7.30887 9.23611 7.72726C9.23611 8.14566 8.89411 8.48484 8.47222 8.48484H6.94444C6.52256 8.48484 6.18056 8.14566 6.18056 7.72726Z" fill="#FFF2E6"/>
</svg>
