<svg width="20" height="20" viewBox="0 0 20 20" fill="none" xmlns="http://www.w3.org/2000/svg">
<g id="Icon">
<path id="Vector" fill-rule="evenodd" clip-rule="evenodd" d="M10 2.08331C10.2883 2.08331 10.5515 2.2461 10.6792 2.50327L12.8439 6.86329L17.6852 7.56681C17.9706 7.60828 18.2075 7.80741 18.2964 8.08045C18.3853 8.3535 18.3108 8.6531 18.1041 8.85325L14.602 12.2444L15.4285 17.0351C15.4773 17.3179 15.3605 17.6038 15.1273 17.7725C14.894 17.9413 14.5848 17.9636 14.3295 17.8301L10 15.5665L5.67054 17.8301C5.41527 17.9636 5.10601 17.9413 4.87278 17.7725C4.63954 17.6038 4.52277 17.3179 4.57157 17.0351L5.39802 12.2444L1.89598 8.85325C1.68928 8.6531 1.6147 8.3535 1.7036 8.08045C1.7925 7.80741 2.02946 7.60828 2.31483 7.56681L7.15612 6.86329L9.32084 2.50327C9.44853 2.2461 9.71179 2.08331 10 2.08331ZM10 4.53925L8.3383 7.88617C8.22798 8.10836 8.01499 8.26241 7.76857 8.29822L4.05308 8.83814L6.74045 11.4404C6.91937 11.6137 7.00104 11.8636 6.9588 12.1084L6.32457 15.7848L9.6477 14.0474C9.86829 13.9321 10.1318 13.9321 10.3523 14.0474L13.6755 15.7848L13.0412 12.1084C12.999 11.8636 13.0807 11.6137 13.2596 11.4404L15.947 8.83814L12.2315 8.29822C11.9851 8.26241 11.7721 8.10836 11.6617 7.88617L10 4.53925Z" fill="#FFF2E6"/>
</g>
</svg>
