<svg width="40" height="40" viewBox="0 0 40 40" fill="none" xmlns="http://www.w3.org/2000/svg">
<path fill-rule="evenodd" clip-rule="evenodd" d="M26.0101 3.74005C26.5568 3.19765 27.4432 3.19765 27.9899 3.74005L33.59 9.2956C34.1367 9.838 34.1367 10.7174 33.59 11.2598L27.9899 16.8153C27.4432 17.3577 26.5568 17.3577 26.0101 16.8153C25.4633 16.273 25.4633 15.3936 26.0101 14.8512L30.6201 10.2777L26.0101 5.70423C25.4633 5.16184 25.4633 4.28244 26.0101 3.74005Z" fill="#36238B"/>
<path fill-rule="evenodd" clip-rule="evenodd" d="M13 11.6666C11.8861 11.6666 10.8178 12.1056 10.0302 12.887C9.2425 13.6684 8.8 14.7282 8.8 15.8333V18.611C8.8 19.3781 8.1732 19.9999 7.4 19.9999C6.6268 19.9999 6 19.3781 6 18.611V15.8333C6 13.9915 6.7375 12.2251 8.05025 10.9228C9.36301 9.62045 11.1435 8.88881 13 8.88881H32.6C33.3732 8.88881 34 9.51063 34 10.2777C34 11.0448 33.3732 11.6666 32.6 11.6666H13Z" fill="#36238B"/>
<path fill-rule="evenodd" clip-rule="evenodd" d="M13.9899 23.1845C14.5367 23.7269 14.5367 24.6063 13.9899 25.1487L9.3799 29.7221L13.9899 34.2956C14.5367 34.838 14.5367 35.7174 13.9899 36.2598C13.4432 36.8022 12.5568 36.8022 12.0101 36.2598L6.41005 30.7042C5.86332 30.1618 5.86332 29.2824 6.41005 28.7401L12.0101 23.1845C12.5568 22.6421 13.4432 22.6421 13.9899 23.1845Z" fill="#36238B"/>
<path fill-rule="evenodd" clip-rule="evenodd" d="M32.6 19.9999C33.3732 19.9999 34 20.6217 34 21.3888V24.1666C34 26.0084 33.2625 27.7747 31.9497 29.0771C30.637 30.3794 28.8565 31.111 27 31.111H7.4C6.6268 31.111 6 30.4892 6 29.7221C6 28.9551 6.6268 28.3333 7.4 28.3333H27C28.1139 28.3333 29.1822 27.8943 29.9698 27.1129C30.7575 26.3315 31.2 25.2717 31.2 24.1666V21.3888C31.2 20.6217 31.8268 19.9999 32.6 19.9999Z" fill="#36238B"/>
</svg>
