<svg width="40" height="40" viewBox="0 0 40 40" fill="none" xmlns="http://www.w3.org/2000/svg">
<path fill-rule="evenodd" clip-rule="evenodd" d="M29.5347 18.9286C30.1264 18.3369 31.0857 18.3369 31.6774 18.9286L36.2229 23.474C36.8146 24.0657 36.8146 25.0251 36.2229 25.6168L25.6168 36.2228C25.0251 36.8145 24.0658 36.8145 23.4741 36.2228L18.9286 31.6774C18.3369 31.0857 18.3369 30.1263 18.9286 29.5346L29.5347 18.9286ZM22.1427 30.606L24.5454 33.0087L33.0088 24.5454L30.606 22.1427L22.1427 30.606Z" fill="#36238B"/>
<path fill-rule="evenodd" clip-rule="evenodd" d="M3.77712 3.77706C4.15035 3.40383 4.69092 3.25173 5.20401 3.37558L27.1737 8.67861C27.7472 8.81704 28.1882 9.27579 28.3039 9.85431L30.5766 21.2179C30.676 21.7147 30.5205 22.2282 30.1623 22.5865L22.5865 30.1622C22.2283 30.5204 21.7148 30.6759 21.218 30.5766L9.85437 28.3038C9.27585 28.1881 8.8171 27.7471 8.67867 27.1736L3.37564 5.20395C3.25179 4.69086 3.40389 4.15029 3.77712 3.77706ZM6.9031 6.90304L11.3974 25.5221L21.0172 27.4461L27.4461 21.0171L25.5222 11.3973L6.9031 6.90304Z" fill="#36238B"/>
<path fill-rule="evenodd" clip-rule="evenodd" d="M3.77712 3.77706C4.36882 3.18536 5.32816 3.18536 5.91987 3.77706L17.4138 15.271C18.0055 15.8627 18.0055 16.822 17.4138 17.4137C16.8221 18.0054 15.8628 18.0054 15.2711 17.4137L3.77712 5.91981C3.18542 5.3281 3.18542 4.36876 3.77712 3.77706Z" fill="#36238B"/>
<path fill-rule="evenodd" clip-rule="evenodd" d="M18.4848 16.9696C17.6481 16.9696 16.9697 17.648 16.9697 18.4848C16.9697 19.3216 17.6481 19.9999 18.4848 19.9999C19.3216 19.9999 20 19.3216 20 18.4848C20 17.648 19.3216 16.9696 18.4848 16.9696ZM13.9394 18.4848C13.9394 15.9744 15.9745 13.9393 18.4848 13.9393C20.9952 13.9393 23.0303 15.9744 23.0303 18.4848C23.0303 20.9952 20.9952 23.0302 18.4848 23.0302C15.9745 23.0302 13.9394 20.9952 13.9394 18.4848Z" fill="#36238B"/>
</svg>
