<svg width="40" height="40" viewBox="0 0 40 40" fill="none" xmlns="http://www.w3.org/2000/svg">
<path fill-rule="evenodd" clip-rule="evenodd" d="M5.36731 24.8503C6.66964 23.5375 8.43599 22.8 10.2778 22.8H21.3889C23.2307 22.8 24.997 23.5375 26.2993 24.8503C27.6017 26.163 28.3333 27.9435 28.3333 29.8V32.6C28.3333 33.3732 27.7115 34 26.9444 34C26.1774 34 25.5556 33.3732 25.5556 32.6V29.8C25.5556 28.6861 25.1166 27.6178 24.3352 26.8302C23.5538 26.0425 22.494 25.6 21.3889 25.6H10.2778C9.1727 25.6 8.1129 26.0425 7.33149 26.8302C6.55009 27.6178 6.11111 28.6861 6.11111 29.8V32.6C6.11111 33.3732 5.48928 34 4.72222 34C3.95515 34 3.33333 33.3732 3.33333 32.6V29.8C3.33333 27.9435 4.06497 26.163 5.36731 24.8503Z" fill="#36238B"/>
<path fill-rule="evenodd" clip-rule="evenodd" d="M15.8333 8.8C13.5321 8.8 11.6667 10.6804 11.6667 13C11.6667 15.3196 13.5321 17.2 15.8333 17.2C18.1345 17.2 20 15.3196 20 13C20 10.6804 18.1345 8.8 15.8333 8.8ZM8.88888 13C8.88888 9.13401 11.998 6 15.8333 6C19.6686 6 22.7778 9.13401 22.7778 13C22.7778 16.866 19.6686 20 15.8333 20C11.998 20 8.88888 16.866 8.88888 13Z" fill="#36238B"/>
<path fill-rule="evenodd" clip-rule="evenodd" d="M29.7663 24.032C29.9581 23.2834 30.7156 22.8332 31.4583 23.0265C32.9481 23.4142 34.268 24.2897 35.2107 25.5155C36.1534 26.7413 36.6655 28.248 36.6667 29.799V32.6C36.6667 33.3732 36.0448 34 35.2778 34C34.5107 34 33.8889 33.3732 33.8889 32.6V29.801C33.8881 28.8706 33.5808 27.9663 33.0153 27.231C32.4497 26.4955 31.6578 25.9702 30.7639 25.7375C30.0212 25.5442 29.5746 24.7806 29.7663 24.032Z" fill="#36238B"/>
<path fill-rule="evenodd" clip-rule="evenodd" d="M24.2101 7.23475C24.4003 6.48571 25.157 6.03397 25.9001 6.22575C27.3938 6.61128 28.7178 7.48698 29.6633 8.71479C30.6088 9.94261 31.122 11.4527 31.122 13.007C31.122 14.5613 30.6088 16.0714 29.6633 17.2992C28.7178 18.527 27.3938 19.4027 25.9001 19.7882C25.157 19.98 24.4003 19.5283 24.2101 18.7793C24.0198 18.0302 24.468 17.2675 25.2111 17.0757C26.1073 16.8444 26.9017 16.319 27.469 15.5823C28.0363 14.8456 28.3442 13.9396 28.3442 13.007C28.3442 12.0744 28.0363 11.1684 27.469 10.4317C26.9017 9.69499 26.1073 9.16957 25.2111 8.93825C24.468 8.74647 24.0198 7.98378 24.2101 7.23475Z" fill="#36238B"/>
</svg>
