<svg width="40" height="40" viewBox="0 0 40 40" fill="none" xmlns="http://www.w3.org/2000/svg">
<path fill-rule="evenodd" clip-rule="evenodd" d="M18.3333 6.66659C11.89 6.66659 6.66665 11.8899 6.66665 18.3333C6.66665 24.7766 11.89 29.9999 18.3333 29.9999C24.7766 29.9999 30 24.7766 30 18.3333C30 11.8899 24.7766 6.66659 18.3333 6.66659ZM3.33331 18.3333C3.33331 10.049 10.049 3.33325 18.3333 3.33325C26.6176 3.33325 33.3333 10.049 33.3333 18.3333C33.3333 26.6175 26.6176 33.3333 18.3333 33.3333C10.049 33.3333 3.33331 26.6175 3.33331 18.3333Z" fill="#36238B"/>
<path fill-rule="evenodd" clip-rule="evenodd" d="M26.5715 26.5714C27.2223 25.9205 28.2776 25.9205 28.9285 26.5714L36.1785 33.8214C36.8294 34.4723 36.8294 35.5276 36.1785 36.1784C35.5276 36.8293 34.4723 36.8293 33.8215 36.1784L26.5715 28.9284C25.9206 28.2776 25.9206 27.2223 26.5715 26.5714Z" fill="#36238B"/>
</svg>
