<svg width="40" height="40" viewBox="0 0 40 40" fill="none" xmlns="http://www.w3.org/2000/svg">
<path fill-rule="evenodd" clip-rule="evenodd" d="M20 6.11103C15.3401 6.11103 11.5625 9.84199 11.5625 14.4444C11.5625 19.0467 15.3401 22.7777 20 22.7777C24.6599 22.7777 28.4375 19.0467 28.4375 14.4444C28.4375 9.84199 24.6599 6.11103 20 6.11103ZM8.75 14.4444C8.75 8.30787 13.7868 3.33325 20 3.33325C26.2132 3.33325 31.25 8.30787 31.25 14.4444C31.25 20.5809 26.2132 25.5555 20 25.5555C13.7868 25.5555 8.75 20.5809 8.75 14.4444Z" fill="#36238B"/>
<path fill-rule="evenodd" clip-rule="evenodd" d="M25.1447 21.2342C25.9146 21.1333 26.6216 21.668 26.7237 22.4284L28.4253 35.095C28.4963 35.6237 28.2546 36.1458 27.8032 36.4386C27.3519 36.7313 26.7707 36.743 26.3077 36.4687L20 32.7307L13.6923 36.4687C13.2292 36.7431 12.648 36.7313 12.1967 36.4385C11.7453 36.1457 11.5036 35.6235 11.5747 35.0948L13.2763 22.4421C13.3786 21.6817 14.0856 21.1471 14.8555 21.2481C15.6254 21.3491 16.1666 22.0474 16.0643 22.8078L14.7469 32.6043L19.2765 29.9201C19.7218 29.6562 20.2782 29.6562 20.7235 29.9201L25.2536 32.6046L23.9357 22.7937C23.8335 22.0333 24.3748 21.3351 25.1447 21.2342Z" fill="#36238B"/>
</svg>
